<svg width="21" height="26" viewBox="0 0 21 26" fill="none" xmlns="http://www.w3.org/2000/svg">
<path id="Vector" d="M19.0909 1.90909H16.2273V0.954545C16.2273 0.701388 16.1267 0.458603 15.9477 0.279594C15.7687 0.100584 15.5259 1.23405e-05 15.2727 0H5.72727C5.47411 2.53157e-06 5.23132 0.100571 5.05231 0.279583C4.8733 0.458594 4.77273 0.701385 4.77273 0.954545V1.90909H1.90909C1.40295 1.90967 0.917698 2.11099 0.559799 2.46889C0.201901 2.82679 0.000578858 3.31204 0 3.81818V23.8636C0.000578858 24.3698 0.201901 24.855 0.559799 25.2129C0.917698 25.5708 1.40295 25.7722 1.90909 25.7727H19.0909C19.5971 25.7722 20.0823 25.5708 20.4402 25.2129C20.7981 24.855 20.9994 24.3698 21 23.8636V3.81818C20.9994 3.31204 20.7981 2.82679 20.4402 2.46889C20.0823 2.11099 19.5971 1.90967 19.0909 1.90909ZM6.68182 1.90909H14.3182V4.77273H6.68182V1.90909ZM19.0909 23.8636H1.90909V3.81818H4.77273V5.72727C4.77273 5.98043 4.8733 6.22322 5.05231 6.40224C5.23132 6.58125 5.47411 6.68182 5.72727 6.68182H15.2727C15.5259 6.68181 15.7687 6.58123 15.9477 6.40222C16.1267 6.22322 16.2273 5.98043 16.2273 5.72727V3.81818H19.0909V23.8636ZM15.2727 16.2273C15.2727 16.4804 15.1722 16.7232 14.9931 16.9022C14.8141 17.0812 14.5713 17.1818 14.3182 17.1818H6.68182C6.42866 17.1818 6.18586 17.0813 6.00685 16.9022C5.82784 16.7232 5.72727 16.4804 5.72727 16.2273C5.72727 15.9741 5.82784 15.7313 6.00685 15.5523C6.18586 15.3733 6.42866 15.2727 6.68182 15.2727H14.3182C14.5713 15.2727 14.8141 15.3733 14.9931 15.5523C15.1722 15.7313 15.2727 15.9741 15.2727 16.2273ZM15.2727 12.4091C15.2727 12.6623 15.1722 12.905 14.9931 13.0841C14.8141 13.2631 14.5713 13.3636 14.3182 13.3636H6.68182C6.42866 13.3636 6.18586 13.2631 6.00685 13.0841C5.82784 12.905 5.72727 12.6623 5.72727 12.4091C5.72727 12.1559 5.82784 11.9131 6.00685 11.7341C6.18586 11.5551 6.42866 11.4545 6.68182 11.4545H14.3182C14.5713 11.4545 14.8141 11.5551 14.9931 11.7341C15.1722 11.9131 15.2727 12.1559 15.2727 12.4091Z" fill="#37475A"/>
</svg>
