<svg width="25" height="20" viewBox="0 0 25 20" fill="none" xmlns="http://www.w3.org/2000/svg">
<path d="M24.9925 0.635424C24.9916 0.62923 24.9906 0.623157 24.9896 0.616963C24.983 0.575952 24.973 0.535582 24.9595 0.496299C24.9576 0.490765 24.9555 0.485349 24.9534 0.479845C24.9388 0.440205 24.9207 0.401914 24.8995 0.365403C24.8965 0.360317 24.8934 0.35538 24.8903 0.350354C24.8674 0.313112 24.8411 0.277988 24.8119 0.245397C24.81 0.243183 24.8088 0.24061 24.8067 0.238427C24.8049 0.236422 24.8026 0.235105 24.8007 0.2331C24.7708 0.201192 24.7381 0.171997 24.703 0.145857C24.6983 0.142415 24.6938 0.138825 24.6891 0.135504C24.6543 0.110933 24.6174 0.0894498 24.5789 0.0712979C24.5741 0.068994 24.5695 0.0665405 24.5646 0.0643861C24.526 0.0472278 24.486 0.0334529 24.445 0.0232168C24.4399 0.0219301 24.4349 0.0204647 24.4299 0.0192955C24.3896 0.0101566 24.3487 0.00442161 24.3074 0.00215184C24.3007 0.00176214 24.294 0.00134415 24.2871 0.00113459C24.2797 0.000896847 24.2723 0 24.2647 0H0.735294C0.727574 0 0.720098 0.000897201 0.712436 0.0011374C0.705913 0.00134696 0.699446 0.00176448 0.692929 0.00215418C0.651526 0.00439555 0.610389 0.0101508 0.569961 0.0193577C0.564994 0.020495 0.560147 0.0219009 0.55518 0.023157C0.514083 0.0334058 0.473959 0.047221 0.435265 0.0644459C0.430478 0.0665697 0.42593 0.068994 0.421202 0.0712072C0.382608 0.0894232 0.345669 0.110956 0.3108 0.135564C0.306194 0.138856 0.301765 0.142386 0.297157 0.145797C0.26199 0.171934 0.229228 0.201162 0.199262 0.23313C0.197347 0.235105 0.195134 0.236422 0.193278 0.238427C0.191244 0.24061 0.190047 0.243183 0.188072 0.245397C0.158881 0.277988 0.132648 0.313112 0.109684 0.350354C0.106572 0.355379 0.103521 0.360317 0.100528 0.365374C0.0792635 0.401929 0.0611853 0.440248 0.046494 0.479904C0.0444596 0.485379 0.0424253 0.490734 0.0405111 0.49624C0.0270605 0.535551 0.0169909 0.575939 0.0104119 0.616963C0.00939472 0.623157 0.0083774 0.62923 0.00753917 0.635424C0.00278152 0.668506 0.000262765 0.701872 0 0.735294V17.402C0.000509898 17.8568 0.181433 18.2929 0.503076 18.6146C0.824719 18.9362 1.26081 19.1171 1.71569 19.1176H23.2843C23.7392 19.1171 24.1753 18.9362 24.4969 18.6146C24.8186 18.2929 24.9995 17.8568 25 17.402V0.735294C24.9997 0.701872 24.9972 0.668506 24.9925 0.635424ZM23.5294 16.7108L15.7272 9.55882L23.5294 2.40682V16.7108ZM1.47059 2.40682L9.27279 9.55885L1.47059 16.7109V2.40682ZM12.5 10.5221L2.62559 1.47059H22.3744L12.5 10.5221ZM10.361 10.5564L12.0031 12.0616C12.1387 12.186 12.316 12.2549 12.5 12.2549C12.684 12.2549 12.8613 12.186 12.9969 12.0616L14.639 10.5563L22.3744 17.6471H2.62571L10.361 10.5564Z" fill="#37475A"/>
</svg>
