<svg width="67" height="53" viewBox="0 0 67 53" fill="none" xmlns="http://www.w3.org/2000/svg">
<path d="M46.3849 18.0682V18.0693C46.3848 19.0278 45.9774 19.9469 45.2523 20.6246C44.5273 21.3023 43.544 21.683 42.5187 21.6829C41.4935 21.6828 40.5102 21.302 39.7853 20.6243C39.0603 19.9465 38.6531 19.0272 38.6531 18.0687C38.6531 17.1103 39.0603 16.191 39.7853 15.5132C40.5102 14.8355 41.4935 14.4547 42.5187 14.4546C43.544 14.4545 44.5273 14.8352 45.2523 15.5129C45.9774 16.1906 46.3848 17.1097 46.3849 18.0682ZM67 4.8182V48.1818C66.9984 49.4592 66.4549 50.6839 65.4887 51.5872C64.5225 52.4904 63.2126 52.9985 61.8461 53H5.15385C3.78744 52.9985 2.47745 52.4904 1.51125 51.5872C0.545057 50.6839 0.0015627 49.4592 0 48.1818V4.8182C0.00156355 3.54078 0.545058 2.3161 1.51125 1.41283C2.47745 0.509561 3.78744 0.00146173 5.15385 0H61.8461C63.2126 0.00145934 64.5225 0.509558 65.4887 1.41283C66.4549 2.3161 66.9984 3.54078 67 4.8182ZM61.8488 37.5498L61.8461 4.8182H5.15385V32.7292L16.9711 21.6819C17.9385 20.7796 19.2491 20.273 20.6155 20.273C21.982 20.273 23.2926 20.7796 24.2599 21.6819L38.6542 35.1387L45.3173 28.9092C46.2846 28.0069 47.5953 27.5002 48.9617 27.5002C50.3281 27.5002 51.6388 28.0069 52.6061 28.9092L61.8488 37.5498Z" fill="#37475A"/>
</svg>
