<svg width="15" height="14" viewBox="0 0 15 14" fill="none" xmlns="http://www.w3.org/2000/svg">
<path d="M14.375 2.08791H11.2503V1.56593C11.2497 1.15077 11.052 0.752738 10.7005 0.45917C10.349 0.165602 9.87241 0.00046938 9.37531 0H5.62531C5.1282 0.00046938 4.65161 0.165602 4.3001 0.45917C3.94859 0.752738 3.75087 1.15077 3.75031 1.56593V2.08791H0.625C0.45924 2.08791 0.300269 2.14291 0.183058 2.2408C0.0658481 2.33869 0 2.47145 0 2.60989C0 2.74833 0.0658481 2.88109 0.183058 2.97898C0.300269 3.07687 0.45924 3.13187 0.625 3.13187H1.25V12.5275C1.25038 12.8042 1.3822 13.0696 1.61654 13.2653C1.85087 13.461 2.1686 13.5711 2.5 13.5714H12.5C12.8314 13.5711 13.1491 13.461 13.3835 13.2653C13.6178 13.0696 13.7496 12.8042 13.75 12.5275V3.13187H14.375C14.5408 3.13187 14.6997 3.07687 14.8169 2.97898C14.9342 2.88109 15 2.74833 15 2.60989C15 2.47145 14.9342 2.33869 14.8169 2.2408C14.6997 2.14291 14.5408 2.08791 14.375 2.08791ZM5.00031 1.56593C5.00049 1.42755 5.0664 1.29487 5.18357 1.19701C5.30074 1.09916 5.4596 1.04411 5.62531 1.04396H9.37531C9.54101 1.04411 9.69987 1.09916 9.81704 1.19701C9.93421 1.29487 10.0001 1.42755 10.0003 1.56593V2.08791H5.00031V1.56593ZM12.5 12.5275H2.5V3.13187H12.5V12.5275ZM6.25031 5.74176V9.91758C6.25031 10.056 6.18446 10.1888 6.06725 10.2867C5.95004 10.3846 5.79107 10.4396 5.62531 10.4396C5.45954 10.4396 5.30057 10.3846 5.18336 10.2867C5.06615 10.1888 5.00031 10.056 5.00031 9.91758V5.74176C5.00031 5.60332 5.06615 5.47055 5.18336 5.37266C5.30057 5.27477 5.45954 5.21978 5.62531 5.21978C5.79107 5.21978 5.95004 5.27477 6.06725 5.37266C6.18446 5.47055 6.25031 5.60332 6.25031 5.74176ZM10.0003 5.74176V9.91758C10.0003 10.056 9.93446 10.1888 9.81725 10.2867C9.70004 10.3846 9.54107 10.4396 9.37531 10.4396C9.20955 10.4396 9.05057 10.3846 8.93336 10.2867C8.81615 10.1888 8.75031 10.056 8.75031 9.91758V5.74176C8.75031 5.60332 8.81615 5.47055 8.93336 5.37266C9.05057 5.27477 9.20955 5.21978 9.37531 5.21978C9.54107 5.21978 9.70004 5.27477 9.81725 5.37266C9.93446 5.47055 10.0003 5.60332 10.0003 5.74176Z" fill="#EAF2F8"/>
</svg>
